<?xml version="1.0" encoding="utf-8"?>
<!-- Generator: Adobe Illustrator 18.0.0, SVG Export Plug-In . SVG Version: 6.00 Build 0)  -->
<!DOCTYPE svg PUBLIC "-//W3C//DTD SVG 1.1//EN" "http://www.w3.org/Graphics/SVG/1.1/DTD/svg11.dtd">
<svg version="1.1" id="Capa_1" xmlns="http://www.w3.org/2000/svg" xmlns:xlink="http://www.w3.org/1999/xlink" x="0px" y="0px"
	 viewBox="0 0 1920 1080" enable-background="new 0 0 1920 1080" xml:space="preserve">
<g>
	<g id="_x31_5_38_">
		<g>
			<path fill="#999999" d="M683.9,256.8h15.4c23.4,0,42.5-19.2,42.5-42.5V97.1V53.2c0-23.4-18.9-42.5-42.5-42.5h-15.4
				c-23.4,0-42.5,18.9-42.5,42.5v43.9v117.4C641.3,237.8,660.5,256.8,683.9,256.8z"/>
			<path fill="#999999" d="M1229.2,255.9h15.4c23.4,0,42.5-18.9,42.5-42.5V86V52.1c0-23.4-18.9-42.5-42.5-42.5h-15.4
				c-23.4,0-42.5,18.9-42.5,42.5V86v127.4C1186.7,236.7,1205.6,255.9,1229.2,255.9z"/>
			<path fill="#999999" d="M1430.7,97.1h-109.1v127.4c0,42.5-34.5,65.9-77,65.9h-15.4c-42.5,0-77-34.5-77-77V97.1H776.5v117.4
				c0,42.5-34.5,77-77,77h-15.4c-42.5,0-77-34.5-77-77V97.1H489c-38.1,0-69,31-69,69v835.1c0,38.1,31,69,69,69h941.7
				c38.1,0,69-31,69-69V166.1C1500,128,1468.8,97.1,1430.7,97.1z M1430.7,1001.2H489V370.5h941.7V1001.2L1430.7,1001.2z"/>
			<path fill="#999999" d="M995.6,582.1h124c4.9,0,8.9-4,8.9-8.9V465.6c0-4.9-4-8.9-8.9-8.9h-124c-4.9,0-8.9,4-8.9,8.9v107.6
				C986.7,578.1,990.7,582.1,995.6,582.1z"/>
			<path fill="#999999" d="M1198,582.1h124c4.9,0,8.9-4,8.9-8.9V465.6c0-4.9-4-8.9-8.9-8.9h-124c-4.9,0-8.9,4-8.9,8.9v107.6
				C1189.1,578.1,1193.1,582.1,1198,582.1z"/>
			<path fill="#999999" d="M590.6,758h124c4.9,0,8.9-4,8.9-8.9V641.5c0-4.9-4-8.9-8.9-8.9h-124c-4.9,0-8.9,4-8.9,8.9v107.6
				C581.7,754,585.7,758,590.6,758z"/>
			<path fill="#999999" d="M793.2,758h124c4.9,0,8.9-4,8.9-8.9V641.5c0-4.9-4-8.9-8.9-8.9h-124c-4.9,0-8.9,4-8.9,8.9v107.6
				C784.3,754,788.1,758,793.2,758z"/>
			<path fill="#999999" d="M995.6,758h124c4.9,0,8.9-4,8.9-8.9V641.5c0-4.9-4-8.9-8.9-8.9h-124c-4.9,0-8.9,4-8.9,8.9v107.6
				C986.7,754,990.7,758,995.6,758z"/>
			<path fill="#999999" d="M1198,758h124c4.9,0,8.9-4,8.9-8.9V641.5c0-4.9-4-8.9-8.9-8.9h-124c-4.9,0-8.9,4-8.9,8.9v107.6
				C1189.1,754,1193.1,758,1198,758z"/>
			<path fill="#999999" d="M714.6,808.8h-124c-4.9,0-8.9,4-8.9,8.9v107.6c0,4.9,4,8.9,8.9,8.9h124c4.9,0,8.9-4,8.9-8.9V817.7
				C723.5,812.6,719.5,808.8,714.6,808.8z"/>
			<path fill="#999999" d="M917.2,808.8h-124c-4.9,0-8.9,4-8.9,8.9v107.6c0,4.9,4,8.9,8.9,8.9h124c4.9,0,8.9-4,8.9-8.9V817.7
				C926.2,812.6,922.1,808.8,917.2,808.8z"/>
			<path fill="#999999" d="M1119.7,808.8h-124c-4.9,0-8.9,4-8.9,8.9v107.6c0,4.9,4,8.9,8.9,8.9h124c4.9,0,8.9-4,8.9-8.9V817.7
				C1128.6,812.6,1124.6,808.8,1119.7,808.8z"/>
			<path fill="#999999" d="M1322.3,808.8h-124c-4.9,0-8.9,4-8.9,8.9v107.6c0,4.9,4,8.9,8.9,8.9h124c4.9,0,8.9-4,8.9-8.9V817.7
				C1331.2,812.6,1327.2,808.8,1322.3,808.8z"/>
		</g>
	</g>
</g>
</svg>
