<?xml version="1.0" encoding="utf-8"?>
<!-- Generator: Adobe Illustrator 18.0.0, SVG Export Plug-In . SVG Version: 6.00 Build 0)  -->
<!DOCTYPE svg PUBLIC "-//W3C//DTD SVG 1.1//EN" "http://www.w3.org/Graphics/SVG/1.1/DTD/svg11.dtd">
<svg version="1.1" id="Capa_1" xmlns="http://www.w3.org/2000/svg" xmlns:xlink="http://www.w3.org/1999/xlink" x="0px" y="0px"
	 viewBox="0 0 1920 1080" enable-background="new 0 0 1920 1080" xml:space="preserve">
<g>
	<g id="communication_-_bubble_chat_talk_conversation_1_">
		<g>
			<path fill="#999999" d="M960,0C661.8,0,420,211.6,420,472.6c0,149.1,79.2,282,202.6,368.5V1080l276.5-138.2
				c20.1,1.9,40.4,3.2,61.1,3.2c298.2,0,540-211.6,540-472.6S1258.2,0,960,0z M960,877.6c-30.9,0-61.1-2.6-90.4-7.6l22.9,7.6
				L690,978.7V810l25.1,8.3c-136.2-70.9-227.5-199.1-227.5-345.7c0-223.8,211.4-405,472.4-405s472.6,181.2,472.6,405
				S1221,877.6,960,877.6z"/>
		</g>
	</g>
</g>
</svg>
